<?xml version="1.0" standalone="no"?>
<!DOCTYPE svg PUBLIC "-//W3C//DTD SVG 20010904//EN"
 "http://www.w3.org/TR/2001/REC-SVG-20010904/DTD/svg10.dtd">
<svg version="1.0" xmlns="http://www.w3.org/2000/svg"
 width="292.000000pt" height="311.000000pt" viewBox="0 0 292.000000 311.000000"
 preserveAspectRatio="xMidYMid meet">

<g transform="translate(0.000000,311.000000) scale(0.100000,-0.100000)"
fill="#000000" stroke="none">
<path d="M1330 2135 c-166 -41 -297 -147 -368 -298 -47 -99 -52 -145 -52 -448
l0 -280 25 -24 24 -25 274 0 c151 0 299 4 328 10 96 18 208 81 282 160 77 81
111 142 138 248 24 95 24 159 -1 256 -26 102 -62 166 -138 247 -130 139 -329
199 -512 154z m16 -312 c52 -34 86 -143 44 -143 -11 0 -20 5 -20 10 0 12 -59
50 -77 50 -7 0 -28 -13 -46 -30 -44 -38 -57 -38 -57 0 0 61 57 130 107 130 13
0 35 -7 49 -17z m310 0 c52 -34 86 -143 44 -143 -11 0 -20 5 -20 10 0 12 -59
50 -77 50 -7 0 -30 -16 -51 -35 -43 -38 -52 -37 -52 7 0 59 58 128 107 128 13
0 35 -7 49 -17z m34 -261 c28 -23 23 -49 -18 -111 -105 -156 -326 -154 -433 4
-40 58 -44 80 -20 104 20 20 33 21 235 21 192 0 216 -2 236 -18z"/>
</g>
</svg>
